# AST/ASF file generated using VICON BodyLanguage
# -----------------------------------------------
:version 1.10
:name VICON
:units
  mass 1.0
  length 0.45
  angle deg
:documentation
   .ast/.asf automatically generated from VICON data using
   VICON BodyBuilder and BodyLanguage model FoxedUp or BRILLIANT.MOD
:root
   order TX TY TZ RX RY RZ
   axis XYZ
   position 0 0 0  
   orientation 0 0 0 
:bonedata
  begin
     id 1 
     name lhipjoint
     direction 0.78388 -0.462562 0.414208 
     length 3.01181 
     axis 0 0 0  XYZ
  end
  begin
     id 2 
     name lfemur
     direction 0.34202 -0.939693 0  
     length 6.04673  
     axis 0 0 20  XYZ
    dof rx ry rz
    limits (-160.0 20.0)
           (-70.0 70.0)
           (-60.0 70.0)
  end
  begin
     id 3 
     name ltibia
     direction 0.34202 -0.939693 0   
     length 7.211   
     axis 0 0 20   XYZ
    dof rx
    limits (-10.0 170.0)
  end
  begin
     id 4 
     name lfoot
     direction 0.121887 -0.334882 0.934344   
     length 2.13567   
     axis -90 7.62852e-016 20   XYZ
    dof rx rz
    limits (-45.0 90.0)
           (-70.0 20.0)
  end
  begin
     id 5 
     name ltoes
     direction 1.53555e-011 -4.2179e-011 1   
     length 1.05957   
     axis -90 7.62852e-016 20   XYZ
    dof rx
    limits (-90.0 20.0)
  end
  begin
     id 6 
     name rhipjoint
     direction -0.769387 -0.475875 0.426129   
     length 2.92756  
     axis 0 0 0  XYZ 
  end
  begin
     id 7 
     name rfemur
     direction -0.34202 -0.939693 0   
     length 6.35468   
     axis 0 0 -20   XYZ
    dof rx ry rz
    limits (-160.0 20.0)
           (-70.0 70.0)
           (-70.0 60.0)
  end
  begin
     id 8 
     name rtibia
     direction -0.34202 -0.939693 0   
     length 7.37886   
     axis 0 0 -20   XYZ
    dof rx
    limits (-10.0 170.0)
 end
 begin
     id 9 
     name rfoot
     direction -0.101763 -0.279592 0.954711   
     length 2.21478  
     axis -90 -7.62852e-016 -20   XYZ
    dof rx rz
    limits (-45.0 90.0)
           (-20.0 70.0)
  end
  begin
     id 10 
     name rtoes
     direction -1.53494e-011 -4.21851e-011 1   
     length 1.10506   
     axis -90 -7.62852e-016 -20   XYZ
    dof rx
    limits (-90.0 20.0)
  end
  begin
     id 11 
     name lowerback
     direction 0.00747405 0.999267 0.0375481   
     length 2.13259   
     axis 0 0 0   XYZ
    dof rx ry rz
    limits (-20.0 45.0)
           (-30.0 30.0)
           (-30.0 30.0)
  end
  begin
     id 12 
     name upperback
     direction 0.00661626 0.996177 0.0871029   
     length 2.10528   
     axis 0 0 0   XYZ
    dof rx ry rz
    limits (-20.0 45.0)
           (-30.0 30.0)
           (-30.0 30.0)
  end
  begin
     id 13 
     name thorax
     direction 0.00320659 0.997679 0.0680167   
     length 2.11338   
     axis 0 0 0   XYZ
    dof rx ry rz
    limits (-20.0 45.0)
           (-30.0 30.0)
           (-30.0 30.0)
  end
  begin
     id 14 
     name lowerneck
     direction 0.0374841 0.973033 0.227602   
     length 1.42765   
     axis 0 0 0   XYZ
    dof rx ry rz
    limits (-20.0 45.0)
           (-30.0 30.0)
           (-30.0 30.0)
  end
  begin
     id 15 
     name upperneck
     direction 0.00481585 0.989155 -0.146795   
     length 1.47593   
     axis 0 0 0   XYZ
    dof rx ry rz
    limits (-20.0 45.0)
           (-30.0 30.0)
           (-30.0 30.0)
  end
  begin
     id 16
     name head
     direction -0.00292522 0.997206 -0.0746423  
     length 1.48116  
     axis 0 0 0   XYZ
    dof rx ry rz
    limits (-20.0 45.0)
           (-30.0 30.0)
           (-30.0 30.0)
  end
  begin
     id 17 
     name lclavicle
     direction 0.951444 0.305606 0.0368784  
     length 3.01855  
     axis 0 0 0   XYZ
    dof ry rz
    limits (-20.0 10.0)
           (0.0 20.0)
  end
  begin
     id 18 
     name lhumerus
     direction 1 -4.48977e-011 2.61664e-027   
     length 5.52731   
     axis 180 -30 -90   XYZ
    dof rx ry rz
    limits (-60.0 90.0)
           (-90.0 90.0)
           (-90.0 90.0)
  end
  begin
     id 19
     name lradius
     direction 1 -4.48944e-011 8.22157e-027   
     length 3.11059   
     axis 180 -30 -90   XYZ
    dof rx
    limits (-10.0 170.0)
  end
  begin
     id 20
     name lwrist
     direction 1 -4.48976e-011 1.5779e-026   
     length 1.5553   
     axis -1.15221e-014 90 90   XYZ
    dof ry
    limits (-180.0 0.0)
 end
  begin
     id 21 
     name lhand
     direction 1 -4.49025e-011 3.1558e-026   
     length 0.419626   
     axis -2.01367e-014 90 90   XYZ
    dof rx rz
    limits (-90.0 90.0)
           (-45.0 45.0)
  end
  begin
     id 22 
     name lfingers
     direction 1 -4.4904e-011 6.31161e-026   
     length 0.338313   
     axis -4.02734e-014 90 90   XYZ
    dof rx
    limits (0.0 90.0)
  end
  begin
     id 23
     name lthumb
     direction 0.707107 -6.35004e-011 0.707107   
     length 0.485752   
     axis -90 45 2.85299e-015   XYZ
    dof rx rz
    limits (-45.0 45.0)
           (-45.0 45.0)
  end
  begin
     id 24 
     name rclavicle
     direction -0.968876 0.223791 0.105816   
     length 3.04177  
     axis 0 0 0   XYZ 
    dof ry rz
    limits (-10.0 20.0)
           (-20.0 0.0)
  end
  begin
     id 25 
     name rhumerus
     direction -1 -4.48962e-011 -1.01384e-027  
     length 5.25396   
     axis 180 30 90   XYZ
    dof rx ry rz
    limits (-90.0 60.0)
           (-90.0 90.0)
           (-90.0 90.0)
  end
  begin
     id 26 
     name rradius
     direction -1 -4.48955e-011 8.88542e-027   
     length 3.10567   
     axis 180 30 90   XYZ
    dof rx
    limits (-10.0 170.0)
  end
  begin
     id 27 
     name rwrist
     direction -1 -4.48994e-011 1.5779e-026   
     length 1.55283   
     axis -1.15221e-014 -90 -90   XYZ
    dof ry
    limits (-180.0 0.0)
  end
  begin
     id 28
     name rhand
     direction -1 -4.48891e-011 3.1558e-026   
     length 0.498676   
     axis -2.01367e-014 -90 -90   XYZ
    dof rx rz
    limits (-90.0 90.0)
           (-45.0 45.0)
  end
  begin
     id 29
     name rfingers
     direction -1 -4.48972e-011 6.31161e-026   
     length 0.402045   
     axis -4.02734e-014 -90 -90   XYZ
    dof rx
    limits (0.0 90.0)
  end
  begin
     id 30
     name rthumb
     direction -0.707107 -6.34849e-011 0.707107   
     length 0.577259   
     axis -90 -45 -2.85299e-015   XYZ
    dof rx rz
    limits (-45.0 45.0)
           (-45.0 45.0)
  end
:hierarchy
  begin
    root lhipjoint rhipjoint lowerback
    lhipjoint lfemur
    lfemur ltibia
    ltibia lfoot
    lfoot ltoes
    rhipjoint rfemur
    rfemur rtibia
    rtibia rfoot
    rfoot rtoes
    lowerback upperback
    upperback thorax
    thorax lowerneck lclavicle rclavicle
    lowerneck upperneck
    upperneck head
    lclavicle lhumerus
    lhumerus lradius
    lradius lwrist
    lwrist lhand lthumb
    lhand lfingers
    rclavicle rhumerus
    rhumerus rradius
    rradius rwrist
    rwrist rhand rthumb
    rhand rfingers
  end

#!OML:ASF H:\Pregnant\Project 1\Capture day 1\Session 1\femalepreg.ASF
:FULLY-SPECIFIED
:DEGREES
54
root -6.34605 15.1796 28.6061 -157.849 -12.1701 177.789
lowerback -15.1169 -0.912426 -2.53429
upperback -7.0076 -1.79549 0.648347
thorax 1.13687 -1.23007 1.81729
lowerneck -21.2655 1.84125 6.31637
upperneck 26.8769 1.16498 -5.00044
head 12.5355 0.200443 -2.85681
rclavicle 1.68812e-014 -7.95139e-016
rhumerus -39.7341 2.40087 -80.3508
rradius 37.4157
rwrist -10.9455
rhand -17.2495 -21.3061
rfingers 7.12502
rthumb 8.99458 -51.0943
lclavicle 1.68812e-014 -7.95139e-016
lhumerus -31.1926 -24.9189 94.3054
lradius 49.6262
lwrist 25.6125
lhand -16.1005 -11.1653
lfingers 7.12502
lthumb 10.1032 18.5721
rfemur -56.6993 7.32751 18.0495
rtibia 46.4427
rfoot -9.73749 -6.66168
rtoes -9.1993
lfemur -13.7707 -9.42661 -23.9438
ltibia 24.4035
lfoot -15.897 -4.32438
ltoes -29.8528
55
root -6.37902 15.1723 28.4565 -158.172 -12.3405 177.669
lowerback -15.1741 -0.78322 -2.02154
upperback -7.00621 -1.69816 0.878525
thorax 1.16167 -1.18846 1.78276
lowerneck -21.1331 1.84172 6.2372
upperneck 27.1208 1.32928 -5.52057
head 12.6202 0.180219 -3.02777
rclavicle -2.37113e-014 1.82882e-014
rhumerus -39.2512 2.21423 -80.1154
rradius 37.0943
rwrist -11.1906
rhand -17.6714 -21.454
rfingers 7.12502
rthumb 8.58749 -51.2593
lclavicle -2.37113e-014 1.82882e-014
lhumerus -31.6839 -25.3532 94.3505
lradius 50.0662
lwrist 25.3752
lhand -15.8053 -11.2883
lfingers 7.12502
lthumb 10.3879 18.4351
rfemur -55.9638 7.21923 18.153
rtibia 47.0985
rfoot -10.3738 -6.87876
rtoes -8.80843
lfemur -13.78 -9.26852 -24.1248
ltibia 25.9991
lfoot -15.191 -5.08039
ltoes -30.6187
56
root -6.41189 15.1617 28.3099 -158.548 -12.4897 177.602
lowerback -15.1564 -0.634467 -1.4416
upperback -6.97846 -1.58103 1.10847
thorax 1.17315 -1.1362 1.71436
lowerneck -21.0655 1.8635 6.19799
upperneck 27.3635 1.50884 -6.03896
head 12.7212 0.17063 -3.20425
rclavicle -2.1916e-014 7.95139e-015
rhumerus -38.7004 2.02696 -79.9043
rradius 36.7
rwrist -11.38
rhand -18.0421 -21.5913
rfingers 7.12502
rthumb 8.22975 -51.4111
lclavicle -2.1916e-014 7.95139e-015
lhumerus -32.1572 -25.6059 94.3111
lradius 50.4327
lwrist 25.3174
lhand -15.6652 -11.2716
lfingers 7.12502
lthumb 10.5231 18.445
rfemur -55.1937 7.22098 18.2467
rtibia 47.7408
rfoot -11.1768 -7.32753
rtoes -9.0402
lfemur -14.0246 -9.0641 -24.2526
ltibia 28.045
lfoot -14.3929 -5.87541
ltoes -31.2687
57
root -6.44474 15.1489 28.1662 -158.984 -12.6125 177.601
lowerback -15.044 -0.470954 -0.795811
upperback -6.93176 -1.45044 1.35242
thorax 1.15392 -1.07659 1.62693
lowerneck -21.0142 1.88748 6.15482
upperneck 27.5833 1.68861 -6.539
head 12.818 0.162682 -3.37367
rclavicle 2.52891e-014 -1.59028e-015
rhumerus -38.0964 1.87917 -79.7117
rradius 36.2354
rwrist -11.5141
rhand -18.3664 -21.6719
rfingers 7.12502
rthumb 7.91673 -51.5037
lclavicle 2.52891e-014 -1.59028e-015
lhumerus -32.6274 -25.654 94.2005
lradius 50.7247
lwrist 25.3687
lhand -15.6596 -11.1293
lfingers 7.12502
lthumb 10.5286 18.5871
rfemur -54.3495 7.32854 18.3599
rtibia 48.3098
rfoot -11.9886 -7.85603
rtoes -9.31058
lfemur -14.4807 -8.79795 -24.3181
ltibia 30.4817
lfoot -13.4249 -6.72613
ltoes -31.6779
58
root -6.47767 15.1358 28.0256 -159.473 -12.7024 177.669
lowerback -14.831 -0.29045 -0.0779926
upperback -6.87579 -1.30377 1.60445
thorax 1.09059 -1.00954 1.51094
lowerneck -20.9706 1.91594 6.11836
upperneck 27.7789 1.8653 -7.01015
head 12.9081 0.157909 -3.5339
rclavicle 1.63003e-014 4.13472e-014
rhumerus -37.4629 1.77464 -79.5429
rradius 35.7026
rwrist -11.5734
rhand -18.6304 -21.6664
rfingers 7.12502
rthumb 7.66188 -51.5076
lclavicle 1.63003e-014 4.13472e-014
lhumerus -33.1201 -25.5119 94.0179
lradius 50.9457
lwrist 25.4625
lhand -15.7464 -10.8755
lfingers 7.12502
lthumb 10.4448 18.8451
rfemur -53.4079 7.52424 18.5191
rtibia 48.7633
rfoot -12.8012 -8.34656
rtoes -9.39211
lfemur -15.1114 -8.46299 -24.3165
ltibia 33.2092
lfoot -12.2 -7.62239
ltoes -31.8122
59
root -6.51082 15.1241 27.888 -159.99 -12.7485 177.805
lowerback -14.5421 -0.0944828 0.706674
upperback -6.81768 -1.1423 1.8635
thorax 0.988953 -0.937172 1.36712
lowerneck -20.9013 1.94179 6.07467
upperneck 27.9307 2.02951 -7.43506
head 12.9749 0.153966 -3.67561
rclavicle -2.48232e-014 -5.725e-014
rhumerus -36.8084 1.72889 -79.403
rradius 35.1182
rwrist -11.5557
rhand -18.8342 -21.6146
rfingers 7.12502
rthumb 7.46518 -51.4628
lclavicle -2.48232e-014 -5.725e-014
lhumerus -33.6452 -25.1831 93.763
lradius 51.0989
lwrist 25.562
lhand -15.9005 -10.5575
lfingers 7.12502
lthumb 10.2962 19.1704
rfemur -52.3822 7.79724 18.7339
rtibia 49.08
rfoot -13.5869 -8.84282
rtoes -9.45023
lfemur -15.8984 -8.06028 -24.2503
ltibia 36.1236
lfoot -10.6176 -8.55635
ltoes -31.5765
60
root -6.5443 15.1157 27.7529 -160.513 -12.7602 177.994
lowerback -14.2061 0.1046 1.53751
upperback -6.75511 -0.978754 2.131
thorax 0.867688 -0.866158 1.20594
lowerneck -20.8111 1.96595 6.0264
upperneck 28.034 2.1827 -7.81694
head 13.0171 0.152087 -3.7995
rclavicle 1.49213e-014 2.06736e-014
rhumerus -36.1268 1.75872 -79.2905
rradius 34.4914
rwrist -11.4557
rhand -18.9498 -21.5475
rfingers 7.12502
rthumb 7.35363 -51.3997
lclavicle 1.49213e-014 2.06736e-014
lhumerus -34.1915 -24.6829 93.4344
lradius 51.1887
lwrist 25.6721
lhand -16.1158 -10.191
lfingers 7.12502
lthumb 10.0884 19.5471
rfemur -51.2895 8.1215 18.9998
rtibia 49.2573
rfoot -14.3115 -9.35043
rtoes -9.42649
lfemur -16.8151 -7.61087 -24.1289
ltibia 39.1264
lfoot -8.61766 -9.47438
ltoes -30.9088
61
root -6.57798 15.1106 27.6197 -161.018 -12.744 178.216
lowerback -13.8517 0.30478 2.39928
upperback -6.68726 -0.813155 2.38927
thorax 0.742811 -0.796701 1.01717
lowerneck -20.7289 1.9895 5.99411
upperneck 28.1012 2.31794 -8.15184
head 13.0447 0.152553 -3.90903
rclavicle -1.30949e-014 7.95139e-015
rhumerus -35.4112 1.82156 -79.2111
rradius 33.8188
rwrist -11.2448
rhand -18.9698 -21.4622
rfingers 7.12502
rthumb 7.33431 -51.3151
lclavicle -1.30949e-014 7.95139e-015
lhumerus -34.7544 -24.0578 93.0241
lradius 51.2239
lwrist 25.8159
lhand -16.4165 -9.80949
lfingers 7.12502
lthumb 9.79837 19.9425
rfemur -50.1622 8.47822 19.2995
rtibia 49.3105
rfoot -14.9719 -9.86006
rtoes -9.4423
lfemur -17.8502 -7.14192 -23.968
ltibia 42.1412
lfoot -6.19324 -10.3058
ltoes -29.7487
62
root -6.61155 15.1087 27.488 -161.48 -12.7039 178.448
lowerback -13.4987 0.497573 3.25563
upperback -6.62409 -0.653992 2.63832
thorax 0.615114 -0.733098 0.820248
lowerneck -20.6565 2.02175 5.99536
upperneck 28.147 2.44456 -8.4479
head 13.0654 0.159966 -4.00948
rclavicle -2.53202e-014 -3.49861e-014
rhumerus -34.6561 1.90374 -79.1548
rradius 33.0842
rwrist -10.9093
rhand -18.8924 -21.3705
rfingers 7.12502
rthumb 7.40901 -51.2208
lclavicle -2.53202e-014 -3.49861e-014
lhumerus -35.3391 -23.3211 92.5469
lradius 51.2013
lwrist 26.0246
lhand -16.8411 -9.48902
lfingers 7.12502
lthumb 9.38868 20.2819
rfemur -49.0375 8.86577 19.6036
rtibia 49.2677
rfoot -15.5613 -10.3966
rtoes -9.51208
lfemur -18.9917 -6.67203 -23.7908
ltibia 45.1044
lfoot -3.44149 -10.9675
ltoes -28.0714
63
root -6.64484 15.1088 27.3571 -161.89 -12.6501 178.667
lowerback -13.1836 0.683727 4.09001
upperback -6.55199 -0.498238 2.85774
thorax 0.518467 -0.672067 0.603492
lowerneck -20.5874 2.05508 6.03474
upperneck 28.1582 2.54684 -8.68918
head 13.0703 0.171445 -4.09675
rclavicle -2.22887e-014 -1.59028e-014
rhumerus -33.8358 1.95168 -79.1257
rradius 32.2748
rwrist -10.4327
rhand -18.7339 -21.264
rfingers 7.12502
rthumb 7.56195 -51.1088
lclavicle -2.22887e-014 -1.59028e-014
lhumerus -35.9245 -22.5365 91.9973
lradius 51.1292
lwrist 26.338
lhand -17.4399 -9.25315
lfingers 7.12502
lthumb 8.81087 20.5429
rfemur -47.9378 9.26361 19.8919
rtibia 49.1652
rfoot -16.0955 -10.9557
rtoes -9.60789
lfemur -20.2207 -6.22568 -23.6204
ltibia 47.9751
lfoot -0.544652 -11.3853
ltoes -25.8634
64
root -6.67733 15.1103 27.2271 -162.232 -12.5949 178.855
lowerback -12.9089 0.851527 4.87237
upperback -6.48568 -0.360393 3.0518
thorax 0.438811 -0.620642 0.386836
lowerneck -20.556 2.11175 6.1422
upperneck 28.1708 2.65214 -8.89775
head 13.0847 0.197892 -4.18258
rclavicle -3.94588e-014 9.54166e-015
rhumerus -32.9637 1.96675 -79.1195
rradius 31.3989
rwrist -9.81632
rhand -18.506 -21.1406
rfingers 7.12502
rthumb 7.78196 -50.9774
lclavicle -3.94588e-014 9.54166e-015
lhumerus -36.5279 -21.7 91.3897
lradius 51.0139
lwrist 26.7743
lhand -18.2247 -9.13593
lfingers 7.12502
lthumb 8.05348 20.6906
rfemur -46.8943 9.65638 20.1489
rtibia 49.0356
rfoot -16.5793 -11.538
rtoes -9.7506
lfemur -21.5297 -5.81763 -23.473
ltibia 50.7264
lfoot 2.19721 -11.5559
ltoes -23.444
